<?xml version="1.0" encoding="utf-8" standalone="no"?>
<!DOCTYPE svg PUBLIC "-//W3C//DTD SVG 1.1//EN"
  "http://www.w3.org/Graphics/SVG/1.1/DTD/svg11.dtd">
<svg xmlns:xlink="http://www.w3.org/1999/xlink" width="353.662971pt" height="375.668497pt" viewBox="0 0 353.662971 375.668497" xmlns="http://www.w3.org/2000/svg" version="1.1">
 <metadata>
  <rdf:RDF xmlns:dc="http://purl.org/dc/elements/1.1/" xmlns:cc="http://creativecommons.org/ns#" xmlns:rdf="http://www.w3.org/1999/02/22-rdf-syntax-ns#">
   <cc:Work>
    <dc:type rdf:resource="http://purl.org/dc/dcmitype/StillImage"/>
    <dc:date>2025-10-31T14:52:23.135616</dc:date>
    <dc:format>image/svg+xml</dc:format>
    <dc:creator>
     <cc:Agent>
      <dc:title>Matplotlib v3.6.3, https://matplotlib.org/</dc:title>
     </cc:Agent>
    </dc:creator>
   </cc:Work>
  </rdf:RDF>
 </metadata>
 <defs>
  <style type="text/css">*{stroke-linejoin: round; stroke-linecap: butt}</style>
 </defs>
 <g id="figure_1">
  <g id="patch_1">
   <path d="M 0 375.668497 
L 353.662971 375.668497 
L 353.662971 0 
L 0 0 
z
" style="fill: #ffffff"/>
  </g>
  <g id="patch_2">
   <path d="M 7.2 362.477812 
L 339.84 362.477812 
L 339.84 29.837812 
L 7.2 29.837812 
z
" style="fill: #ffffff"/>
  </g>
  <g id="pane3d_1">
   <g id="patch_3">
    <path d="M 32.316614 280.459449 
L 142.165206 188.382181 
L 140.638205 55.590301 
L 25.532792 139.588989 
" style="fill: #f2f2f2; opacity: 0.5; stroke: #f2f2f2; stroke-linejoin: miter"/>
   </g>
  </g>
  <g id="pane3d_2">
   <g id="patch_4">
    <path d="M 142.165206 188.382181 
L 318.433001 239.61627 
L 324.723377 102.250526 
L 140.638205 55.590301 
" style="fill: #e6e6e6; opacity: 0.5; stroke: #e6e6e6; stroke-linejoin: miter"/>
   </g>
  </g>
  <g id="pane3d_3">
   <g id="patch_5">
    <path d="M 32.316614 280.459449 
L 219.169086 341.485466 
L 318.433001 239.61627 
L 142.165206 188.382181 
" style="fill: #ececec; opacity: 0.5; stroke: #ececec; stroke-linejoin: miter"/>
   </g>
  </g>
  <g id="axis3d_1">
   <g id="line2d_1">
    <path d="M 32.316614 280.459449 
L 219.169086 341.485466 
" style="fill: none; stroke: #1a1a1a; stroke-linecap: square"/>
   </g>
   <g id="text_1">
    <!-- n -->
    <g style="fill: #1a1a1a" transform="translate(103.212913 348.692836) scale(0.12 -0.12)">
     <defs>
      <path id="DejaVuSans-6e" d="M 3513 2113 
L 3513 0 
L 2938 0 
L 2938 2094 
Q 2938 2591 2744 2837 
Q 2550 3084 2163 3084 
Q 1697 3084 1428 2787 
Q 1159 2491 1159 1978 
L 1159 0 
L 581 0 
L 581 3500 
L 1159 3500 
L 1159 2956 
Q 1366 3272 1645 3428 
Q 1925 3584 2291 3584 
Q 2894 3584 3203 3211 
Q 3513 2838 3513 2113 
z
" transform="scale(0.015625)"/>
     </defs>
     <use xlink:href="#DejaVuSans-6e"/>
    </g>
   </g>
   <g id="Line3DCollection_1">
    <path d="M 35.865331 281.61846 
L 145.527428 189.359446 
L 144.142276 56.478481 
" style="fill: none; stroke-dasharray: 2.22,0.96; stroke-dashoffset: 0; stroke: #b0b0b0; stroke-width: 0.6"/>
    <path d="M 70.308122 292.867475 
L 178.130824 198.835967 
L 178.135804 65.094849 
" style="fill: none; stroke-dasharray: 2.22,0.96; stroke-dashoffset: 0; stroke: #b0b0b0; stroke-width: 0.6"/>
    <path d="M 105.444757 304.3431 
L 211.336304 208.487488 
L 212.784367 73.87725 
" style="fill: none; stroke-dasharray: 2.22,0.96; stroke-dashoffset: 0; stroke: #b0b0b0; stroke-width: 0.6"/>
    <path d="M 141.296417 316.052252 
L 245.160698 218.318905 
L 248.107081 82.830529 
" style="fill: none; stroke-dasharray: 2.22,0.96; stroke-dashoffset: 0; stroke: #b0b0b0; stroke-width: 0.6"/>
    <path d="M 177.88515 328.002132 
L 279.621475 228.335292 
L 284.123817 91.959721 
" style="fill: none; stroke-dasharray: 2.22,0.96; stroke-dashoffset: 0; stroke: #b0b0b0; stroke-width: 0.6"/>
    <path d="M 215.233924 340.200242 
L 314.736765 238.54192 
L 320.855229 101.270063 
" style="fill: none; stroke-dasharray: 2.22,0.96; stroke-dashoffset: 0; stroke: #b0b0b0; stroke-width: 0.6"/>
   </g>
   <g id="xtick_1">
    <g id="line2d_2">
     <path d="M 178.015135 191.662677 
" clip-path="url(#p972a499aff)" style="fill: none; stroke-dasharray: 2.22,0.96; stroke-dashoffset: 0; stroke: #b0b0b0; stroke-opacity: 0.7; stroke-width: 0.6"/>
    </g>
    <g id="line2d_3">
     <path d="M 36.820088 280.81522 
L 33.951728 283.228378 
" style="fill: none; stroke: #1a1a1a; stroke-width: 0.8; stroke-linecap: square"/>
    </g>
    <g id="text_2">
     <!-- 500 -->
     <g style="fill: #1a1a1a" transform="translate(16.883276 306.39277) scale(0.12 -0.12)">
      <defs>
       <path id="DejaVuSans-35" d="M 691 4666 
L 3169 4666 
L 3169 4134 
L 1269 4134 
L 1269 2991 
Q 1406 3038 1543 3061 
Q 1681 3084 1819 3084 
Q 2600 3084 3056 2656 
Q 3513 2228 3513 1497 
Q 3513 744 3044 326 
Q 2575 -91 1722 -91 
Q 1428 -91 1123 -41 
Q 819 9 494 109 
L 494 744 
Q 775 591 1075 516 
Q 1375 441 1709 441 
Q 2250 441 2565 725 
Q 2881 1009 2881 1497 
Q 2881 1984 2565 2268 
Q 2250 2553 1709 2553 
Q 1456 2553 1204 2497 
Q 953 2441 691 2322 
L 691 4666 
z
" transform="scale(0.015625)"/>
       <path id="DejaVuSans-30" d="M 2034 4250 
Q 1547 4250 1301 3770 
Q 1056 3291 1056 2328 
Q 1056 1369 1301 889 
Q 1547 409 2034 409 
Q 2525 409 2770 889 
Q 3016 1369 3016 2328 
Q 3016 3291 2770 3770 
Q 2525 4250 2034 4250 
z
M 2034 4750 
Q 2819 4750 3233 4129 
Q 3647 3509 3647 2328 
Q 3647 1150 3233 529 
Q 2819 -91 2034 -91 
Q 1250 -91 836 529 
Q 422 1150 422 2328 
Q 422 3509 836 4129 
Q 1250 4750 2034 4750 
z
" transform="scale(0.015625)"/>
      </defs>
      <use xlink:href="#DejaVuSans-35"/>
      <use xlink:href="#DejaVuSans-30" x="63.623047"/>
      <use xlink:href="#DejaVuSans-30" x="127.246094"/>
     </g>
    </g>
   </g>
   <g id="xtick_2">
    <g id="line2d_4">
     <path d="M 178.015135 191.662677 
" clip-path="url(#p972a499aff)" style="fill: none; stroke-dasharray: 2.22,0.96; stroke-dashoffset: 0; stroke: #b0b0b0; stroke-opacity: 0.7; stroke-width: 0.6"/>
    </g>
    <g id="line2d_5">
     <path d="M 71.247624 292.048142 
L 68.425056 294.509685 
" style="fill: none; stroke: #1a1a1a; stroke-width: 0.8; stroke-linecap: square"/>
    </g>
    <g id="text_3">
     <!-- 1000 -->
     <g style="fill: #1a1a1a" transform="translate(47.536398 317.832062) scale(0.12 -0.12)">
      <defs>
       <path id="DejaVuSans-31" d="M 794 531 
L 1825 531 
L 1825 4091 
L 703 3866 
L 703 4441 
L 1819 4666 
L 2450 4666 
L 2450 531 
L 3481 531 
L 3481 0 
L 794 0 
L 794 531 
z
" transform="scale(0.015625)"/>
      </defs>
      <use xlink:href="#DejaVuSans-31"/>
      <use xlink:href="#DejaVuSans-30" x="63.623047"/>
      <use xlink:href="#DejaVuSans-30" x="127.246094"/>
      <use xlink:href="#DejaVuSans-30" x="190.869141"/>
     </g>
    </g>
   </g>
   <g id="xtick_3">
    <g id="line2d_6">
     <path d="M 178.015135 191.662677 
" clip-path="url(#p972a499aff)" style="fill: none; stroke-dasharray: 2.22,0.96; stroke-dashoffset: 0; stroke: #b0b0b0; stroke-opacity: 0.7; stroke-width: 0.6"/>
    </g>
    <g id="line2d_7">
     <path d="M 106.368192 303.507184 
L 103.593854 306.018583 
" style="fill: none; stroke: #1a1a1a; stroke-width: 0.8; stroke-linecap: square"/>
    </g>
    <g id="text_4">
     <!-- 1500 -->
     <g style="fill: #1a1a1a" transform="translate(82.703527 329.502494) scale(0.12 -0.12)">
      <use xlink:href="#DejaVuSans-31"/>
      <use xlink:href="#DejaVuSans-35" x="63.623047"/>
      <use xlink:href="#DejaVuSans-30" x="127.246094"/>
      <use xlink:href="#DejaVuSans-30" x="190.869141"/>
     </g>
    </g>
   </g>
   <g id="xtick_4">
    <g id="line2d_8">
     <path d="M 178.015135 191.662677 
" clip-path="url(#p972a499aff)" style="fill: none; stroke-dasharray: 2.22,0.96; stroke-dashoffset: 0; stroke: #b0b0b0; stroke-opacity: 0.7; stroke-width: 0.6"/>
    </g>
    <g id="line2d_9">
     <path d="M 142.202934 315.199245 
L 139.479382 317.76203 
" style="fill: none; stroke: #1a1a1a; stroke-width: 0.8; stroke-linecap: square"/>
    </g>
    <g id="text_5">
     <!-- 2000 -->
     <g style="fill: #1a1a1a" transform="translate(118.588486 341.411142) scale(0.12 -0.12)">
      <defs>
       <path id="DejaVuSans-32" d="M 1228 531 
L 3431 531 
L 3431 0 
L 469 0 
L 469 531 
Q 828 903 1448 1529 
Q 2069 2156 2228 2338 
Q 2531 2678 2651 2914 
Q 2772 3150 2772 3378 
Q 2772 3750 2511 3984 
Q 2250 4219 1831 4219 
Q 1534 4219 1204 4116 
Q 875 4013 500 3803 
L 500 4441 
Q 881 4594 1212 4672 
Q 1544 4750 1819 4750 
Q 2544 4750 2975 4387 
Q 3406 4025 3406 3419 
Q 3406 3131 3298 2873 
Q 3191 2616 2906 2266 
Q 2828 2175 2409 1742 
Q 1991 1309 1228 531 
z
" transform="scale(0.015625)"/>
      </defs>
      <use xlink:href="#DejaVuSans-32"/>
      <use xlink:href="#DejaVuSans-30" x="63.623047"/>
      <use xlink:href="#DejaVuSans-30" x="127.246094"/>
      <use xlink:href="#DejaVuSans-30" x="190.869141"/>
     </g>
    </g>
   </g>
   <g id="xtick_5">
    <g id="line2d_10">
     <path d="M 178.015135 191.662677 
" clip-path="url(#p972a499aff)" style="fill: none; stroke-dasharray: 2.22,0.96; stroke-dashoffset: 0; stroke: #b0b0b0; stroke-opacity: 0.7; stroke-width: 0.6"/>
    </g>
    <g id="line2d_11">
     <path d="M 178.773855 327.131505 
L 176.103778 329.747269 
" style="fill: none; stroke: #1a1a1a; stroke-width: 0.8; stroke-linecap: square"/>
    </g>
    <g id="text_6">
     <!-- 2500 -->
     <g style="fill: #1a1a1a" transform="translate(155.213482 353.565376) scale(0.12 -0.12)">
      <use xlink:href="#DejaVuSans-32"/>
      <use xlink:href="#DejaVuSans-35" x="63.623047"/>
      <use xlink:href="#DejaVuSans-30" x="127.246094"/>
      <use xlink:href="#DejaVuSans-30" x="190.869141"/>
     </g>
    </g>
   </g>
   <g id="xtick_6">
    <g id="line2d_12">
     <path d="M 178.015135 191.662677 
" clip-path="url(#p972a499aff)" style="fill: none; stroke-dasharray: 2.22,0.96; stroke-dashoffset: 0; stroke: #b0b0b0; stroke-opacity: 0.7; stroke-width: 0.6"/>
    </g>
    <g id="line2d_13">
     <path d="M 216.103878 339.311442 
L 213.490097 341.981845 
" style="fill: none; stroke: #1a1a1a; stroke-width: 0.8; stroke-linecap: square"/>
    </g>
    <g id="text_7">
     <!-- 3000 -->
     <g style="fill: #1a1a1a" transform="translate(192.601645 365.972872) scale(0.12 -0.12)">
      <defs>
       <path id="DejaVuSans-33" d="M 2597 2516 
Q 3050 2419 3304 2112 
Q 3559 1806 3559 1356 
Q 3559 666 3084 287 
Q 2609 -91 1734 -91 
Q 1441 -91 1130 -33 
Q 819 25 488 141 
L 488 750 
Q 750 597 1062 519 
Q 1375 441 1716 441 
Q 2309 441 2620 675 
Q 2931 909 2931 1356 
Q 2931 1769 2642 2001 
Q 2353 2234 1838 2234 
L 1294 2234 
L 1294 2753 
L 1863 2753 
Q 2328 2753 2575 2939 
Q 2822 3125 2822 3475 
Q 2822 3834 2567 4026 
Q 2313 4219 1838 4219 
Q 1578 4219 1281 4162 
Q 984 4106 628 3988 
L 628 4550 
Q 988 4650 1302 4700 
Q 1616 4750 1894 4750 
Q 2613 4750 3031 4423 
Q 3450 4097 3450 3541 
Q 3450 3153 3228 2886 
Q 3006 2619 2597 2516 
z
" transform="scale(0.015625)"/>
      </defs>
      <use xlink:href="#DejaVuSans-33"/>
      <use xlink:href="#DejaVuSans-30" x="63.623047"/>
      <use xlink:href="#DejaVuSans-30" x="127.246094"/>
      <use xlink:href="#DejaVuSans-30" x="190.869141"/>
     </g>
    </g>
   </g>
  </g>
  <g id="axis3d_2">
   <g id="line2d_14">
    <path d="M 318.433001 239.61627 
L 219.169086 341.485466 
" style="fill: none; stroke: #1a1a1a; stroke-linecap: square"/>
   </g>
   <g id="text_8">
    <!-- m -->
    <g style="fill: #1a1a1a" transform="translate(292.142544 319.585636) scale(0.12 -0.12)">
     <defs>
      <path id="DejaVuSans-6d" d="M 3328 2828 
Q 3544 3216 3844 3400 
Q 4144 3584 4550 3584 
Q 5097 3584 5394 3201 
Q 5691 2819 5691 2113 
L 5691 0 
L 5113 0 
L 5113 2094 
Q 5113 2597 4934 2840 
Q 4756 3084 4391 3084 
Q 3944 3084 3684 2787 
Q 3425 2491 3425 1978 
L 3425 0 
L 2847 0 
L 2847 2094 
Q 2847 2600 2669 2842 
Q 2491 3084 2119 3084 
Q 1678 3084 1418 2786 
Q 1159 2488 1159 1978 
L 1159 0 
L 581 0 
L 581 3500 
L 1159 3500 
L 1159 2956 
Q 1356 3278 1631 3431 
Q 1906 3584 2284 3584 
Q 2666 3584 2933 3390 
Q 3200 3197 3328 2828 
z
" transform="scale(0.015625)"/>
     </defs>
     <use xlink:href="#DejaVuSans-6d"/>
    </g>
   </g>
   <g id="Line3DCollection_2">
    <path d="M 28.044598 137.755987 
L 34.704819 278.457608 
L 221.336512 339.261154 
" style="fill: none; stroke-dasharray: 2.22,0.96; stroke-dashoffset: 0; stroke: #b0b0b0; stroke-width: 0.6"/>
    <path d="M 51.691109 120.499841 
L 57.207117 259.595736 
L 241.738111 318.324095 
" style="fill: none; stroke-dasharray: 2.22,0.96; stroke-dashoffset: 0; stroke: #b0b0b0; stroke-width: 0.6"/>
    <path d="M 74.522712 103.838377 
L 78.967241 241.355968 
L 261.431713 298.113614 
" style="fill: none; stroke-dasharray: 2.22,0.96; stroke-dashoffset: 0; stroke: #b0b0b0; stroke-width: 0.6"/>
    <path d="M 96.580818 87.741376 
L 100.021314 223.708027 
L 280.453545 278.592535 
" style="fill: none; stroke-dasharray: 2.22,0.96; stroke-dashoffset: 0; stroke: #b0b0b0; stroke-width: 0.6"/>
    <path d="M 117.904079 72.180631 
L 120.403151 206.623567 
L 298.837401 259.726176 
" style="fill: none; stroke-dasharray: 2.22,0.96; stroke-dashoffset: 0; stroke: #b0b0b0; stroke-width: 0.6"/>
    <path d="M 138.528615 57.129783 
L 140.144442 190.076025 
L 316.614849 241.482141 
" style="fill: none; stroke-dasharray: 2.22,0.96; stroke-dashoffset: 0; stroke: #b0b0b0; stroke-width: 0.6"/>
   </g>
   <g id="xtick_7">
    <g id="line2d_15">
     <path d="M 178.015135 191.662677 
" clip-path="url(#p972a499aff)" style="fill: none; stroke-dasharray: 2.22,0.96; stroke-dashoffset: 0; stroke: #b0b0b0; stroke-opacity: 0.7; stroke-width: 0.6"/>
    </g>
    <g id="line2d_16">
     <path d="M 219.763435 338.748655 
L 224.486749 340.287484 
" style="fill: none; stroke: #1a1a1a; stroke-width: 0.8; stroke-linecap: square"/>
    </g>
    <g id="text_9">
     <!-- 500 -->
     <g style="fill: #1a1a1a" transform="translate(222.813483 361.858142) scale(0.12 -0.12)">
      <use xlink:href="#DejaVuSans-35"/>
      <use xlink:href="#DejaVuSans-30" x="63.623047"/>
      <use xlink:href="#DejaVuSans-30" x="127.246094"/>
     </g>
    </g>
   </g>
   <g id="xtick_8">
    <g id="line2d_17">
     <path d="M 178.015135 191.662677 
" clip-path="url(#p972a499aff)" style="fill: none; stroke-dasharray: 2.22,0.96; stroke-dashoffset: 0; stroke: #b0b0b0; stroke-opacity: 0.7; stroke-width: 0.6"/>
    </g>
    <g id="line2d_18">
     <path d="M 240.184137 317.829531 
L 244.850022 319.314483 
" style="fill: none; stroke: #1a1a1a; stroke-width: 0.8; stroke-linecap: square"/>
    </g>
    <g id="text_10">
     <!-- 1000 -->
     <g style="fill: #1a1a1a" transform="translate(239.178805 340.673071) scale(0.12 -0.12)">
      <use xlink:href="#DejaVuSans-31"/>
      <use xlink:href="#DejaVuSans-30" x="63.623047"/>
      <use xlink:href="#DejaVuSans-30" x="127.246094"/>
      <use xlink:href="#DejaVuSans-30" x="190.869141"/>
     </g>
    </g>
   </g>
   <g id="xtick_9">
    <g id="line2d_19">
     <path d="M 178.015135 191.662677 
" clip-path="url(#p972a499aff)" style="fill: none; stroke-dasharray: 2.22,0.96; stroke-dashoffset: 0; stroke: #b0b0b0; stroke-opacity: 0.7; stroke-width: 0.6"/>
    </g>
    <g id="line2d_20">
     <path d="M 259.896475 297.636061 
L 264.506037 299.069917 
" style="fill: none; stroke: #1a1a1a; stroke-width: 0.8; stroke-linecap: square"/>
    </g>
    <g id="text_11">
     <!-- 1500 -->
     <g style="fill: #1a1a1a" transform="translate(258.660898 320.223526) scale(0.12 -0.12)">
      <use xlink:href="#DejaVuSans-31"/>
      <use xlink:href="#DejaVuSans-35" x="63.623047"/>
      <use xlink:href="#DejaVuSans-30" x="127.246094"/>
      <use xlink:href="#DejaVuSans-30" x="190.869141"/>
     </g>
    </g>
   </g>
   <g id="xtick_10">
    <g id="line2d_21">
     <path d="M 178.015135 191.662677 
" clip-path="url(#p972a499aff)" style="fill: none; stroke-dasharray: 2.22,0.96; stroke-dashoffset: 0; stroke: #b0b0b0; stroke-opacity: 0.7; stroke-width: 0.6"/>
    </g>
    <g id="line2d_22">
     <path d="M 278.936679 278.13113 
L 283.491013 279.516483 
" style="fill: none; stroke: #1a1a1a; stroke-width: 0.8; stroke-linecap: square"/>
    </g>
    <g id="text_12">
     <!-- 2000 -->
     <g style="fill: #1a1a1a" transform="translate(277.478131 300.471857) scale(0.12 -0.12)">
      <use xlink:href="#DejaVuSans-32"/>
      <use xlink:href="#DejaVuSans-30" x="63.623047"/>
      <use xlink:href="#DejaVuSans-30" x="127.246094"/>
      <use xlink:href="#DejaVuSans-30" x="190.869141"/>
     </g>
    </g>
   </g>
   <g id="xtick_11">
    <g id="line2d_23">
     <path d="M 178.015135 191.662677 
" clip-path="url(#p972a499aff)" style="fill: none; stroke-dasharray: 2.22,0.96; stroke-dashoffset: 0; stroke: #b0b0b0; stroke-opacity: 0.7; stroke-width: 0.6"/>
    </g>
    <g id="line2d_24">
     <path d="M 297.338549 259.280113 
L 301.838736 260.619383 
" style="fill: none; stroke: #1a1a1a; stroke-width: 0.8; stroke-linecap: square"/>
    </g>
    <g id="text_13">
     <!-- 2500 -->
     <g style="fill: #1a1a1a" transform="translate(295.663968 281.382938) scale(0.12 -0.12)">
      <use xlink:href="#DejaVuSans-32"/>
      <use xlink:href="#DejaVuSans-35" x="63.623047"/>
      <use xlink:href="#DejaVuSans-30" x="127.246094"/>
      <use xlink:href="#DejaVuSans-30" x="190.869141"/>
     </g>
    </g>
   </g>
   <g id="xtick_12">
    <g id="line2d_25">
     <path d="M 178.015135 191.662677 
" clip-path="url(#p972a499aff)" style="fill: none; stroke-dasharray: 2.22,0.96; stroke-dashoffset: 0; stroke: #b0b0b0; stroke-opacity: 0.7; stroke-width: 0.6"/>
    </g>
    <g id="line2d_26">
     <path d="M 315.133657 241.050668 
L 319.580761 242.346116 
" style="fill: none; stroke: #1a1a1a; stroke-width: 0.8; stroke-linecap: square"/>
    </g>
    <g id="text_14">
     <!-- 3000 -->
     <g style="fill: #1a1a1a" transform="translate(313.249663 262.923963) scale(0.12 -0.12)">
      <use xlink:href="#DejaVuSans-33"/>
      <use xlink:href="#DejaVuSans-30" x="63.623047"/>
      <use xlink:href="#DejaVuSans-30" x="127.246094"/>
      <use xlink:href="#DejaVuSans-30" x="190.869141"/>
     </g>
    </g>
   </g>
  </g>
  <g id="axis3d_3">
   <g id="line2d_27">
    <path d="M 318.433001 239.61627 
L 324.723377 102.250526 
" style="fill: none; stroke: #1a1a1a; stroke-linecap: square"/>
   </g>
   <g id="text_15">
    <!-- Runtime -->
    <g style="fill: #1a1a1a" transform="translate(364.100191 192.2062) rotate(-87.378092) scale(0.12 -0.12)">
     <defs>
      <path id="DejaVuSans-52" d="M 2841 2188 
Q 3044 2119 3236 1894 
Q 3428 1669 3622 1275 
L 4263 0 
L 3584 0 
L 2988 1197 
Q 2756 1666 2539 1819 
Q 2322 1972 1947 1972 
L 1259 1972 
L 1259 0 
L 628 0 
L 628 4666 
L 2053 4666 
Q 2853 4666 3247 4331 
Q 3641 3997 3641 3322 
Q 3641 2881 3436 2590 
Q 3231 2300 2841 2188 
z
M 1259 4147 
L 1259 2491 
L 2053 2491 
Q 2509 2491 2742 2702 
Q 2975 2913 2975 3322 
Q 2975 3731 2742 3939 
Q 2509 4147 2053 4147 
L 1259 4147 
z
" transform="scale(0.015625)"/>
      <path id="DejaVuSans-75" d="M 544 1381 
L 544 3500 
L 1119 3500 
L 1119 1403 
Q 1119 906 1312 657 
Q 1506 409 1894 409 
Q 2359 409 2629 706 
Q 2900 1003 2900 1516 
L 2900 3500 
L 3475 3500 
L 3475 0 
L 2900 0 
L 2900 538 
Q 2691 219 2414 64 
Q 2138 -91 1772 -91 
Q 1169 -91 856 284 
Q 544 659 544 1381 
z
M 1991 3584 
L 1991 3584 
z
" transform="scale(0.015625)"/>
      <path id="DejaVuSans-74" d="M 1172 4494 
L 1172 3500 
L 2356 3500 
L 2356 3053 
L 1172 3053 
L 1172 1153 
Q 1172 725 1289 603 
Q 1406 481 1766 481 
L 2356 481 
L 2356 0 
L 1766 0 
Q 1100 0 847 248 
Q 594 497 594 1153 
L 594 3053 
L 172 3053 
L 172 3500 
L 594 3500 
L 594 4494 
L 1172 4494 
z
" transform="scale(0.015625)"/>
      <path id="DejaVuSans-69" d="M 603 3500 
L 1178 3500 
L 1178 0 
L 603 0 
L 603 3500 
z
M 603 4863 
L 1178 4863 
L 1178 4134 
L 603 4134 
L 603 4863 
z
" transform="scale(0.015625)"/>
      <path id="DejaVuSans-65" d="M 3597 1894 
L 3597 1613 
L 953 1613 
Q 991 1019 1311 708 
Q 1631 397 2203 397 
Q 2534 397 2845 478 
Q 3156 559 3463 722 
L 3463 178 
Q 3153 47 2828 -22 
Q 2503 -91 2169 -91 
Q 1331 -91 842 396 
Q 353 884 353 1716 
Q 353 2575 817 3079 
Q 1281 3584 2069 3584 
Q 2775 3584 3186 3129 
Q 3597 2675 3597 1894 
z
M 3022 2063 
Q 3016 2534 2758 2815 
Q 2500 3097 2075 3097 
Q 1594 3097 1305 2825 
Q 1016 2553 972 2059 
L 3022 2063 
z
" transform="scale(0.015625)"/>
     </defs>
     <use xlink:href="#DejaVuSans-52"/>
     <use xlink:href="#DejaVuSans-75" x="64.982422"/>
     <use xlink:href="#DejaVuSans-6e" x="128.361328"/>
     <use xlink:href="#DejaVuSans-74" x="191.740234"/>
     <use xlink:href="#DejaVuSans-69" x="230.949219"/>
     <use xlink:href="#DejaVuSans-6d" x="258.732422"/>
     <use xlink:href="#DejaVuSans-65" x="356.144531"/>
    </g>
   </g>
   <g id="Line3DCollection_3">
    <path d="M 318.755818 232.566756 
L 142.086684 181.553733 
L 31.969029 273.24163 
" style="fill: none; stroke-dasharray: 2.22,0.96; stroke-dashoffset: 0; stroke: #b0b0b0; stroke-width: 0.6"/>
    <path d="M 319.720276 211.505475 
L 141.852192 161.161734 
L 30.93022 251.670082 
" style="fill: none; stroke-dasharray: 2.22,0.96; stroke-dashoffset: 0; stroke: #b0b0b0; stroke-width: 0.6"/>
    <path d="M 320.698042 190.153548 
L 141.614619 140.501804 
L 29.876527 229.789464 
" style="fill: none; stroke-dasharray: 2.22,0.96; stroke-dashoffset: 0; stroke: #b0b0b0; stroke-width: 0.6"/>
    <path d="M 321.689396 168.504916 
L 141.373905 119.568628 
L 28.807628 207.593085 
" style="fill: none; stroke-dasharray: 2.22,0.96; stroke-dashoffset: 0; stroke: #b0b0b0; stroke-width: 0.6"/>
    <path d="M 322.694622 146.553353 
L 141.129985 98.356748 
L 27.723192 185.074061 
" style="fill: none; stroke-dasharray: 2.22,0.96; stroke-dashoffset: 0; stroke: #b0b0b0; stroke-width: 0.6"/>
    <path d="M 323.714013 124.292454 
L 140.882796 76.860562 
L 26.622877 162.225305 
" style="fill: none; stroke-dasharray: 2.22,0.96; stroke-dashoffset: 0; stroke: #b0b0b0; stroke-width: 0.6"/>
   </g>
   <g id="xtick_13">
    <g id="line2d_28">
     <path d="M 178.015135 191.662677 
" style="fill: none; stroke-dasharray: 2.22,0.96; stroke-dashoffset: 0; stroke: #b0b0b0; stroke-opacity: 0.7; stroke-width: 0.6"/>
    </g>
    <g id="line2d_29">
     <path d="M 317.272918 232.13857 
L 321.725154 233.424148 
" style="fill: none; stroke: #1a1a1a; stroke-width: 0.8; stroke-linecap: square"/>
    </g>
    <g id="text_16">
     <!-- 0 -->
     <g style="fill: #1a1a1a" transform="translate(333.239008 239.0893) scale(0.12 -0.12)">
      <use xlink:href="#DejaVuSans-30"/>
     </g>
    </g>
   </g>
   <g id="xtick_14">
    <g id="line2d_30">
     <path d="M 178.015135 191.662677 
" style="fill: none; stroke-dasharray: 2.22,0.96; stroke-dashoffset: 0; stroke: #b0b0b0; stroke-opacity: 0.7; stroke-width: 0.6"/>
    </g>
    <g id="line2d_31">
     <path d="M 318.226832 211.082771 
L 322.710747 212.351897 
" style="fill: none; stroke: #1a1a1a; stroke-width: 0.8; stroke-linecap: square"/>
    </g>
    <g id="text_17">
     <!-- 1 -->
     <g style="fill: #1a1a1a" transform="translate(334.326235 218.061285) scale(0.12 -0.12)">
      <use xlink:href="#DejaVuSans-31"/>
     </g>
    </g>
   </g>
   <g id="xtick_15">
    <g id="line2d_32">
     <path d="M 178.015135 191.662677 
" style="fill: none; stroke-dasharray: 2.22,0.96; stroke-dashoffset: 0; stroke: #b0b0b0; stroke-opacity: 0.7; stroke-width: 0.6"/>
    </g>
    <g id="line2d_33">
     <path d="M 319.193905 189.736518 
L 323.709952 190.988614 
" style="fill: none; stroke: #1a1a1a; stroke-width: 0.8; stroke-linecap: square"/>
    </g>
    <g id="text_18">
     <!-- 2 -->
     <g style="fill: #1a1a1a" transform="translate(335.428429 196.743791) scale(0.12 -0.12)">
      <use xlink:href="#DejaVuSans-32"/>
     </g>
    </g>
   </g>
   <g id="xtick_16">
    <g id="line2d_34">
     <path d="M 178.015135 191.662677 
" style="fill: none; stroke-dasharray: 2.22,0.96; stroke-dashoffset: 0; stroke: #b0b0b0; stroke-opacity: 0.7; stroke-width: 0.6"/>
    </g>
    <g id="line2d_35">
     <path d="M 320.174411 168.09376 
L 324.723054 169.328228 
" style="fill: none; stroke: #1a1a1a; stroke-width: 0.8; stroke-linecap: square"/>
    </g>
    <g id="text_19">
     <!-- 3 -->
     <g style="fill: #1a1a1a" transform="translate(336.545902 175.130798) scale(0.12 -0.12)">
      <use xlink:href="#DejaVuSans-33"/>
     </g>
    </g>
   </g>
   <g id="xtick_17">
    <g id="line2d_36">
     <path d="M 178.015135 191.662677 
" style="fill: none; stroke-dasharray: 2.22,0.96; stroke-dashoffset: 0; stroke: #b0b0b0; stroke-opacity: 0.7; stroke-width: 0.6"/>
    </g>
    <g id="line2d_37">
     <path d="M 321.168631 146.148276 
L 325.750343 147.364499 
" style="fill: none; stroke: #1a1a1a; stroke-width: 0.8; stroke-linecap: square"/>
    </g>
    <g id="text_20">
     <!-- 4 -->
     <g style="fill: #1a1a1a" transform="translate(337.678973 153.216119) scale(0.12 -0.12)">
      <defs>
       <path id="DejaVuSans-34" d="M 2419 4116 
L 825 1625 
L 2419 1625 
L 2419 4116 
z
M 2253 4666 
L 3047 4666 
L 3047 1625 
L 3713 1625 
L 3713 1100 
L 3047 1100 
L 3047 0 
L 2419 0 
L 2419 1100 
L 313 1100 
L 313 1709 
L 2253 4666 
z
" transform="scale(0.015625)"/>
      </defs>
      <use xlink:href="#DejaVuSans-34"/>
     </g>
    </g>
   </g>
   <g id="xtick_18">
    <g id="line2d_38">
     <path d="M 178.015135 191.662677 
" style="fill: none; stroke-dasharray: 2.22,0.96; stroke-dashoffset: 0; stroke: #b0b0b0; stroke-opacity: 0.7; stroke-width: 0.6"/>
    </g>
    <g id="line2d_39">
     <path d="M 322.176856 123.89367 
L 326.792121 125.091008 
" style="fill: none; stroke: #1a1a1a; stroke-width: 0.8; stroke-linecap: square"/>
    </g>
    <g id="text_21">
     <!-- 5 -->
     <g style="fill: #1a1a1a" transform="translate(338.827971 130.993394) scale(0.12 -0.12)">
      <use xlink:href="#DejaVuSans-35"/>
     </g>
    </g>
   </g>
  </g>
  <g id="axes_1">
   <g id="line2d_40">
    <path d="M 37.811937 270.134013 
L 94.31162 255.329263 
L 150.210959 236.134103 
L 205.763917 212.509167 
L 261.218616 184.376281 
L 316.821062 151.617689 
" clip-path="url(#p972a499aff)" style="fill: none; stroke: #e69f00; stroke-width: 2; stroke-linecap: square"/>
   </g>
   <g id="Path3DCollection_1">
    <path d="M 312.640041 177.930908 
L 318.964597 171.606352 
M 312.640041 171.606352 
L 318.964597 177.930908 
" clip-path="url(#p972a499aff)" style="fill: #e69f00; fill-opacity: 0.3; stroke: #e69f00; stroke-opacity: 0.3; stroke-width: 1.5"/>
    <path d="M 312.751537 175.397171 
L 319.076092 169.072616 
M 312.751537 169.072616 
L 319.076092 175.397171 
" clip-path="url(#p972a499aff)" style="fill: #e69f00; fill-opacity: 0.328293; stroke: #e69f00; stroke-opacity: 0.328293; stroke-width: 1.5"/>
    <path d="M 257.673832 201.889338 
L 263.998387 195.564782 
M 257.673832 195.564782 
L 263.998387 201.889338 
" clip-path="url(#p972a499aff)" style="fill: #e69f00; fill-opacity: 0.362875; stroke: #e69f00; stroke-opacity: 0.362875; stroke-width: 1.5"/>
    <path d="M 257.676471 201.790322 
L 264.001026 195.465767 
M 257.676471 195.465767 
L 264.001026 201.790322 
" clip-path="url(#p972a499aff)" style="fill: #e69f00; fill-opacity: 0.363991; stroke: #e69f00; stroke-opacity: 0.363991; stroke-width: 1.5"/>
    <path d="M 312.967313 170.493666 
L 319.291868 164.169111 
M 312.967313 164.169111 
L 319.291868 170.493666 
" clip-path="url(#p972a499aff)" style="fill: #e69f00; fill-opacity: 0.383048; stroke: #e69f00; stroke-opacity: 0.383048; stroke-width: 1.5"/>
    <path d="M 202.499421 227.06683 
L 208.823977 220.742274 
M 202.499421 220.742274 
L 208.823977 227.06683 
" clip-path="url(#p972a499aff)" style="fill: #e69f00; fill-opacity: 0.413085; stroke: #e69f00; stroke-opacity: 0.413085; stroke-width: 1.5"/>
    <path d="M 202.505732 226.36335 
L 208.830287 220.038795 
M 202.505732 220.038795 
L 208.830287 226.36335 
" clip-path="url(#p972a499aff)" style="fill: #e69f00; fill-opacity: 0.421091; stroke: #e69f00; stroke-opacity: 0.421091; stroke-width: 1.5"/>
    <path d="M 257.826945 196.144884 
L 264.1515 189.820329 
M 257.826945 189.820329 
L 264.1515 196.144884 
" clip-path="url(#p972a499aff)" style="fill: #e69f00; fill-opacity: 0.427632; stroke: #e69f00; stroke-opacity: 0.427632; stroke-width: 1.5"/>
    <path d="M 202.560839 220.21993 
L 208.885394 213.895374 
M 202.560839 213.895374 
L 208.885394 220.21993 
" clip-path="url(#p972a499aff)" style="fill: #e69f00; fill-opacity: 0.491011; stroke: #e69f00; stroke-opacity: 0.491011; stroke-width: 1.5"/>
    <path d="M 313.445638 159.623722 
L 319.770193 153.299166 
M 313.445638 153.299166 
L 319.770193 159.623722 
" clip-path="url(#p972a499aff)" style="fill: #e69f00; fill-opacity: 0.504428; stroke: #e69f00; stroke-opacity: 0.504428; stroke-width: 1.5"/>
    <path d="M 258.026045 188.675094 
L 264.3506 182.350539 
M 258.026045 182.350539 
L 264.3506 188.675094 
" clip-path="url(#p972a499aff)" style="fill: #e69f00; fill-opacity: 0.511838; stroke: #e69f00; stroke-opacity: 0.511838; stroke-width: 1.5"/>
    <path d="M 202.578124 218.292958 
L 208.902679 211.968402 
M 202.578124 211.968402 
L 208.902679 218.292958 
" clip-path="url(#p972a499aff)" style="fill: #e69f00; fill-opacity: 0.512942; stroke: #e69f00; stroke-opacity: 0.512942; stroke-width: 1.5"/>
    <path d="M 147.101584 245.13733 
L 153.426139 238.812775 
M 147.101584 238.812775 
L 153.426139 245.13733 
" clip-path="url(#p972a499aff)" style="fill: #e69f00; fill-opacity: 0.545941; stroke: #e69f00; stroke-opacity: 0.545941; stroke-width: 1.5"/>
    <path d="M 147.100148 244.978798 
L 153.424703 238.654242 
M 147.100148 238.654242 
L 153.424703 244.978798 
" clip-path="url(#p972a499aff)" style="fill: #e69f00; fill-opacity: 0.547763; stroke: #e69f00; stroke-opacity: 0.547763; stroke-width: 1.5"/>
    <path d="M 147.094499 244.355172 
L 153.419055 238.030616 
M 147.094499 238.030616 
L 153.419055 244.355172 
" clip-path="url(#p972a499aff)" style="fill: #e69f00; fill-opacity: 0.554929; stroke: #e69f00; stroke-opacity: 0.554929; stroke-width: 1.5"/>
    <path d="M 147.042837 238.651154 
L 153.367392 232.326599 
M 147.042837 232.326599 
L 153.367392 238.651154 
" clip-path="url(#p972a499aff)" style="fill: #e69f00; fill-opacity: 0.620478; stroke: #e69f00; stroke-opacity: 0.620478; stroke-width: 1.5"/>
    <path d="M 147.015674 235.652113 
L 153.34023 229.327558 
M 147.015674 229.327558 
L 153.34023 235.652113 
" clip-path="url(#p972a499aff)" style="fill: #e69f00; fill-opacity: 0.654943; stroke: #e69f00; stroke-opacity: 0.654943; stroke-width: 1.5"/>
    <path d="M 146.995029 233.372735 
L 153.319585 227.048179 
M 146.995029 227.048179 
L 153.319585 233.372735 
" clip-path="url(#p972a499aff)" style="fill: #e69f00; fill-opacity: 0.681137; stroke: #e69f00; stroke-opacity: 0.681137; stroke-width: 1.5"/>
    <path d="M 202.718579 202.634838 
L 209.043134 196.310283 
M 202.718579 196.310283 
L 209.043134 202.634838 
" clip-path="url(#p972a499aff)" style="fill: #e69f00; fill-opacity: 0.691152; stroke: #e69f00; stroke-opacity: 0.691152; stroke-width: 1.5"/>
    <path d="M 202.720876 202.378724 
L 209.045432 196.054168 
M 202.720876 196.054168 
L 209.045432 202.378724 
" clip-path="url(#p972a499aff)" style="fill: #e69f00; fill-opacity: 0.694067; stroke: #e69f00; stroke-opacity: 0.694067; stroke-width: 1.5"/>
    <path d="M 91.227554 261.342043 
L 97.552109 255.017488 
M 91.227554 255.017488 
L 97.552109 261.342043 
" clip-path="url(#p972a499aff)" style="fill: #e69f00; fill-opacity: 0.703053; stroke: #e69f00; stroke-opacity: 0.703053; stroke-width: 1.5"/>
    <path d="M 91.203717 260.473287 
L 97.528272 254.148732 
M 91.203717 254.148732 
L 97.528272 260.473287 
" clip-path="url(#p972a499aff)" style="fill: #e69f00; fill-opacity: 0.713135; stroke: #e69f00; stroke-opacity: 0.713135; stroke-width: 1.5"/>
    <path d="M 91.198751 260.292301 
L 97.523306 253.967746 
M 91.198751 253.967746 
L 97.523306 260.292301 
" clip-path="url(#p972a499aff)" style="fill: #e69f00; fill-opacity: 0.715235; stroke: #e69f00; stroke-opacity: 0.715235; stroke-width: 1.5"/>
    <path d="M 91.134776 257.960681 
L 97.459332 251.636126 
M 91.134776 251.636126 
L 97.459332 257.960681 
" clip-path="url(#p972a499aff)" style="fill: #e69f00; fill-opacity: 0.742292; stroke: #e69f00; stroke-opacity: 0.742292; stroke-width: 1.5"/>
    <path d="M 258.580491 167.873546 
L 264.905046 161.548991 
M 258.580491 161.548991 
L 264.905046 167.873546 
" clip-path="url(#p972a499aff)" style="fill: #e69f00; fill-opacity: 0.746332; stroke: #e69f00; stroke-opacity: 0.746332; stroke-width: 1.5"/>
    <path d="M 91.102741 256.793126 
L 97.427296 250.468571 
M 91.102741 250.468571 
L 97.427296 256.793126 
" clip-path="url(#p972a499aff)" style="fill: #e69f00; fill-opacity: 0.755841; stroke: #e69f00; stroke-opacity: 0.755841; stroke-width: 1.5"/>
    <path d="M 91.085256 256.15585 
L 97.409811 249.831294 
M 91.085256 249.831294 
L 97.409811 256.15585 
" clip-path="url(#p972a499aff)" style="fill: #e69f00; fill-opacity: 0.763236; stroke: #e69f00; stroke-opacity: 0.763236; stroke-width: 1.5"/>
    <path d="M 258.69921 163.419472 
L 265.023765 157.094916 
M 258.69921 157.094916 
L 265.023765 163.419472 
" clip-path="url(#p972a499aff)" style="fill: #e69f00; fill-opacity: 0.796542; stroke: #e69f00; stroke-opacity: 0.796542; stroke-width: 1.5"/>
    <path d="M 314.790453 129.062777 
L 321.115009 122.738221 
M 314.790453 122.738221 
L 321.115009 129.062777 
" clip-path="url(#p972a499aff)" style="fill: #e69f00; fill-opacity: 0.845689; stroke: #e69f00; stroke-opacity: 0.845689; stroke-width: 1.5"/>
    <path d="M 34.690881 274.188872 
L 41.015436 267.864316 
M 34.690881 267.864316 
L 41.015436 274.188872 
" clip-path="url(#p972a499aff)" style="fill: #e69f00; fill-opacity: 0.902628; stroke: #e69f00; stroke-opacity: 0.902628; stroke-width: 1.5"/>
    <path d="M 34.678769 273.926618 
L 41.003324 267.602063 
M 34.678769 267.602063 
L 41.003324 273.926618 
" clip-path="url(#p972a499aff)" style="fill: #e69f00; fill-opacity: 0.905702; stroke: #e69f00; stroke-opacity: 0.905702; stroke-width: 1.5"/>
    <path d="M 34.67019 273.740845 
L 40.994745 267.41629 
M 34.67019 267.41629 
L 40.994745 273.740845 
" clip-path="url(#p972a499aff)" style="fill: #e69f00; fill-opacity: 0.907879; stroke: #e69f00; stroke-opacity: 0.907879; stroke-width: 1.5"/>
    <path d="M 34.649323 273.28901 
L 40.973878 266.964455 
M 34.649323 266.964455 
L 40.973878 273.28901 
" clip-path="url(#p972a499aff)" style="fill: #e69f00; fill-opacity: 0.913174; stroke: #e69f00; stroke-opacity: 0.913174; stroke-width: 1.5"/>
    <path d="M 34.636406 273.009325 
L 40.960961 266.68477 
M 34.636406 266.68477 
L 40.960961 273.009325 
" clip-path="url(#p972a499aff)" style="fill: #e69f00; fill-opacity: 0.916452; stroke: #e69f00; stroke-opacity: 0.916452; stroke-width: 1.5"/>
    <path d="M 34.622653 272.711526 
L 40.947208 266.386971 
M 34.622653 266.386971 
L 40.947208 272.711526 
" clip-path="url(#p972a499aff)" style="fill: #e69f00; fill-opacity: 0.919942; stroke: #e69f00; stroke-opacity: 0.919942; stroke-width: 1.5"/>
    <path d="M 315.39855 115.243767 
L 321.723106 108.919212 
M 315.39855 108.919212 
L 321.723106 115.243767 
" clip-path="url(#p972a499aff)" style="fill: #e69f00; stroke: #e69f00; stroke-width: 1.5"/>
   </g>
   <g id="text_22">
    <!-- Time for Unbanded Sequence Alignment -->
    <g style="fill: #333333" transform="translate(31.550156 17.837812) scale(0.14 -0.14)">
     <defs>
      <path id="DejaVuSans-54" d="M -19 4666 
L 3928 4666 
L 3928 4134 
L 2272 4134 
L 2272 0 
L 1638 0 
L 1638 4134 
L -19 4134 
L -19 4666 
z
" transform="scale(0.015625)"/>
      <path id="DejaVuSans-20" transform="scale(0.015625)"/>
      <path id="DejaVuSans-66" d="M 2375 4863 
L 2375 4384 
L 1825 4384 
Q 1516 4384 1395 4259 
Q 1275 4134 1275 3809 
L 1275 3500 
L 2222 3500 
L 2222 3053 
L 1275 3053 
L 1275 0 
L 697 0 
L 697 3053 
L 147 3053 
L 147 3500 
L 697 3500 
L 697 3744 
Q 697 4328 969 4595 
Q 1241 4863 1831 4863 
L 2375 4863 
z
" transform="scale(0.015625)"/>
      <path id="DejaVuSans-6f" d="M 1959 3097 
Q 1497 3097 1228 2736 
Q 959 2375 959 1747 
Q 959 1119 1226 758 
Q 1494 397 1959 397 
Q 2419 397 2687 759 
Q 2956 1122 2956 1747 
Q 2956 2369 2687 2733 
Q 2419 3097 1959 3097 
z
M 1959 3584 
Q 2709 3584 3137 3096 
Q 3566 2609 3566 1747 
Q 3566 888 3137 398 
Q 2709 -91 1959 -91 
Q 1206 -91 779 398 
Q 353 888 353 1747 
Q 353 2609 779 3096 
Q 1206 3584 1959 3584 
z
" transform="scale(0.015625)"/>
      <path id="DejaVuSans-72" d="M 2631 2963 
Q 2534 3019 2420 3045 
Q 2306 3072 2169 3072 
Q 1681 3072 1420 2755 
Q 1159 2438 1159 1844 
L 1159 0 
L 581 0 
L 581 3500 
L 1159 3500 
L 1159 2956 
Q 1341 3275 1631 3429 
Q 1922 3584 2338 3584 
Q 2397 3584 2469 3576 
Q 2541 3569 2628 3553 
L 2631 2963 
z
" transform="scale(0.015625)"/>
      <path id="DejaVuSans-55" d="M 556 4666 
L 1191 4666 
L 1191 1831 
Q 1191 1081 1462 751 
Q 1734 422 2344 422 
Q 2950 422 3222 751 
Q 3494 1081 3494 1831 
L 3494 4666 
L 4128 4666 
L 4128 1753 
Q 4128 841 3676 375 
Q 3225 -91 2344 -91 
Q 1459 -91 1007 375 
Q 556 841 556 1753 
L 556 4666 
z
" transform="scale(0.015625)"/>
      <path id="DejaVuSans-62" d="M 3116 1747 
Q 3116 2381 2855 2742 
Q 2594 3103 2138 3103 
Q 1681 3103 1420 2742 
Q 1159 2381 1159 1747 
Q 1159 1113 1420 752 
Q 1681 391 2138 391 
Q 2594 391 2855 752 
Q 3116 1113 3116 1747 
z
M 1159 2969 
Q 1341 3281 1617 3432 
Q 1894 3584 2278 3584 
Q 2916 3584 3314 3078 
Q 3713 2572 3713 1747 
Q 3713 922 3314 415 
Q 2916 -91 2278 -91 
Q 1894 -91 1617 61 
Q 1341 213 1159 525 
L 1159 0 
L 581 0 
L 581 4863 
L 1159 4863 
L 1159 2969 
z
" transform="scale(0.015625)"/>
      <path id="DejaVuSans-61" d="M 2194 1759 
Q 1497 1759 1228 1600 
Q 959 1441 959 1056 
Q 959 750 1161 570 
Q 1363 391 1709 391 
Q 2188 391 2477 730 
Q 2766 1069 2766 1631 
L 2766 1759 
L 2194 1759 
z
M 3341 1997 
L 3341 0 
L 2766 0 
L 2766 531 
Q 2569 213 2275 61 
Q 1981 -91 1556 -91 
Q 1019 -91 701 211 
Q 384 513 384 1019 
Q 384 1609 779 1909 
Q 1175 2209 1959 2209 
L 2766 2209 
L 2766 2266 
Q 2766 2663 2505 2880 
Q 2244 3097 1772 3097 
Q 1472 3097 1187 3025 
Q 903 2953 641 2809 
L 641 3341 
Q 956 3463 1253 3523 
Q 1550 3584 1831 3584 
Q 2591 3584 2966 3190 
Q 3341 2797 3341 1997 
z
" transform="scale(0.015625)"/>
      <path id="DejaVuSans-64" d="M 2906 2969 
L 2906 4863 
L 3481 4863 
L 3481 0 
L 2906 0 
L 2906 525 
Q 2725 213 2448 61 
Q 2172 -91 1784 -91 
Q 1150 -91 751 415 
Q 353 922 353 1747 
Q 353 2572 751 3078 
Q 1150 3584 1784 3584 
Q 2172 3584 2448 3432 
Q 2725 3281 2906 2969 
z
M 947 1747 
Q 947 1113 1208 752 
Q 1469 391 1925 391 
Q 2381 391 2643 752 
Q 2906 1113 2906 1747 
Q 2906 2381 2643 2742 
Q 2381 3103 1925 3103 
Q 1469 3103 1208 2742 
Q 947 2381 947 1747 
z
" transform="scale(0.015625)"/>
      <path id="DejaVuSans-53" d="M 3425 4513 
L 3425 3897 
Q 3066 4069 2747 4153 
Q 2428 4238 2131 4238 
Q 1616 4238 1336 4038 
Q 1056 3838 1056 3469 
Q 1056 3159 1242 3001 
Q 1428 2844 1947 2747 
L 2328 2669 
Q 3034 2534 3370 2195 
Q 3706 1856 3706 1288 
Q 3706 609 3251 259 
Q 2797 -91 1919 -91 
Q 1588 -91 1214 -16 
Q 841 59 441 206 
L 441 856 
Q 825 641 1194 531 
Q 1563 422 1919 422 
Q 2459 422 2753 634 
Q 3047 847 3047 1241 
Q 3047 1584 2836 1778 
Q 2625 1972 2144 2069 
L 1759 2144 
Q 1053 2284 737 2584 
Q 422 2884 422 3419 
Q 422 4038 858 4394 
Q 1294 4750 2059 4750 
Q 2388 4750 2728 4690 
Q 3069 4631 3425 4513 
z
" transform="scale(0.015625)"/>
      <path id="DejaVuSans-71" d="M 947 1747 
Q 947 1113 1208 752 
Q 1469 391 1925 391 
Q 2381 391 2643 752 
Q 2906 1113 2906 1747 
Q 2906 2381 2643 2742 
Q 2381 3103 1925 3103 
Q 1469 3103 1208 2742 
Q 947 2381 947 1747 
z
M 2906 525 
Q 2725 213 2448 61 
Q 2172 -91 1784 -91 
Q 1150 -91 751 415 
Q 353 922 353 1747 
Q 353 2572 751 3078 
Q 1150 3584 1784 3584 
Q 2172 3584 2448 3432 
Q 2725 3281 2906 2969 
L 2906 3500 
L 3481 3500 
L 3481 -1331 
L 2906 -1331 
L 2906 525 
z
" transform="scale(0.015625)"/>
      <path id="DejaVuSans-63" d="M 3122 3366 
L 3122 2828 
Q 2878 2963 2633 3030 
Q 2388 3097 2138 3097 
Q 1578 3097 1268 2742 
Q 959 2388 959 1747 
Q 959 1106 1268 751 
Q 1578 397 2138 397 
Q 2388 397 2633 464 
Q 2878 531 3122 666 
L 3122 134 
Q 2881 22 2623 -34 
Q 2366 -91 2075 -91 
Q 1284 -91 818 406 
Q 353 903 353 1747 
Q 353 2603 823 3093 
Q 1294 3584 2113 3584 
Q 2378 3584 2631 3529 
Q 2884 3475 3122 3366 
z
" transform="scale(0.015625)"/>
      <path id="DejaVuSans-41" d="M 2188 4044 
L 1331 1722 
L 3047 1722 
L 2188 4044 
z
M 1831 4666 
L 2547 4666 
L 4325 0 
L 3669 0 
L 3244 1197 
L 1141 1197 
L 716 0 
L 50 0 
L 1831 4666 
z
" transform="scale(0.015625)"/>
      <path id="DejaVuSans-6c" d="M 603 4863 
L 1178 4863 
L 1178 0 
L 603 0 
L 603 4863 
z
" transform="scale(0.015625)"/>
      <path id="DejaVuSans-67" d="M 2906 1791 
Q 2906 2416 2648 2759 
Q 2391 3103 1925 3103 
Q 1463 3103 1205 2759 
Q 947 2416 947 1791 
Q 947 1169 1205 825 
Q 1463 481 1925 481 
Q 2391 481 2648 825 
Q 2906 1169 2906 1791 
z
M 3481 434 
Q 3481 -459 3084 -895 
Q 2688 -1331 1869 -1331 
Q 1566 -1331 1297 -1286 
Q 1028 -1241 775 -1147 
L 775 -588 
Q 1028 -725 1275 -790 
Q 1522 -856 1778 -856 
Q 2344 -856 2625 -561 
Q 2906 -266 2906 331 
L 2906 616 
Q 2728 306 2450 153 
Q 2172 0 1784 0 
Q 1141 0 747 490 
Q 353 981 353 1791 
Q 353 2603 747 3093 
Q 1141 3584 1784 3584 
Q 2172 3584 2450 3431 
Q 2728 3278 2906 2969 
L 2906 3500 
L 3481 3500 
L 3481 434 
z
" transform="scale(0.015625)"/>
     </defs>
     <use xlink:href="#DejaVuSans-54"/>
     <use xlink:href="#DejaVuSans-69" x="57.958984"/>
     <use xlink:href="#DejaVuSans-6d" x="85.742188"/>
     <use xlink:href="#DejaVuSans-65" x="183.154297"/>
     <use xlink:href="#DejaVuSans-20" x="244.677734"/>
     <use xlink:href="#DejaVuSans-66" x="276.464844"/>
     <use xlink:href="#DejaVuSans-6f" x="311.669922"/>
     <use xlink:href="#DejaVuSans-72" x="372.851562"/>
     <use xlink:href="#DejaVuSans-20" x="413.964844"/>
     <use xlink:href="#DejaVuSans-55" x="445.751953"/>
     <use xlink:href="#DejaVuSans-6e" x="518.945312"/>
     <use xlink:href="#DejaVuSans-62" x="582.324219"/>
     <use xlink:href="#DejaVuSans-61" x="645.800781"/>
     <use xlink:href="#DejaVuSans-6e" x="707.080078"/>
     <use xlink:href="#DejaVuSans-64" x="770.458984"/>
     <use xlink:href="#DejaVuSans-65" x="833.935547"/>
     <use xlink:href="#DejaVuSans-64" x="895.458984"/>
     <use xlink:href="#DejaVuSans-20" x="958.935547"/>
     <use xlink:href="#DejaVuSans-53" x="990.722656"/>
     <use xlink:href="#DejaVuSans-65" x="1054.199219"/>
     <use xlink:href="#DejaVuSans-71" x="1115.722656"/>
     <use xlink:href="#DejaVuSans-75" x="1179.199219"/>
     <use xlink:href="#DejaVuSans-65" x="1242.578125"/>
     <use xlink:href="#DejaVuSans-6e" x="1304.101562"/>
     <use xlink:href="#DejaVuSans-63" x="1367.480469"/>
     <use xlink:href="#DejaVuSans-65" x="1422.460938"/>
     <use xlink:href="#DejaVuSans-20" x="1483.984375"/>
     <use xlink:href="#DejaVuSans-41" x="1515.771484"/>
     <use xlink:href="#DejaVuSans-6c" x="1584.179688"/>
     <use xlink:href="#DejaVuSans-69" x="1611.962891"/>
     <use xlink:href="#DejaVuSans-67" x="1639.746094"/>
     <use xlink:href="#DejaVuSans-6e" x="1703.222656"/>
     <use xlink:href="#DejaVuSans-6d" x="1766.601562"/>
     <use xlink:href="#DejaVuSans-65" x="1864.013672"/>
     <use xlink:href="#DejaVuSans-6e" x="1925.537109"/>
     <use xlink:href="#DejaVuSans-74" x="1988.916016"/>
    </g>
   </g>
   <g id="legend_1">
    <g id="patch_6">
     <path d="M 210.049375 67.194062 
L 332.84 67.194062 
Q 334.84 67.194062 334.84 65.194062 
L 334.84 36.837812 
Q 334.84 34.837812 332.84 34.837812 
L 210.049375 34.837812 
Q 208.049375 34.837812 208.049375 36.837812 
L 208.049375 65.194062 
Q 208.049375 67.194062 210.049375 67.194062 
z
" style="fill: #ffffff; opacity: 0.8; stroke: #cccccc; stroke-linejoin: miter"/>
    </g>
    <g id="Path3DCollection_2">
     <defs>
      <path id="m4bb8a6b9a2" d="M -3.162278 3.162278 
L 3.162278 -3.162278 
M -3.162278 -3.162278 
L 3.162278 3.162278 
" style="stroke: #e69f00; stroke-width: 1.5"/>
     </defs>
     <g>
      <use xlink:href="#m4bb8a6b9a2" x="222.049375" y="43.81125" style="fill: #e69f00; stroke: #e69f00; stroke-width: 1.5"/>
     </g>
    </g>
    <g id="text_23">
     <!-- Observed -->
     <g style="fill: #333333" transform="translate(240.049375 46.43625) scale(0.1 -0.1)">
      <defs>
       <path id="DejaVuSans-4f" d="M 2522 4238 
Q 1834 4238 1429 3725 
Q 1025 3213 1025 2328 
Q 1025 1447 1429 934 
Q 1834 422 2522 422 
Q 3209 422 3611 934 
Q 4013 1447 4013 2328 
Q 4013 3213 3611 3725 
Q 3209 4238 2522 4238 
z
M 2522 4750 
Q 3503 4750 4090 4092 
Q 4678 3434 4678 2328 
Q 4678 1225 4090 567 
Q 3503 -91 2522 -91 
Q 1538 -91 948 565 
Q 359 1222 359 2328 
Q 359 3434 948 4092 
Q 1538 4750 2522 4750 
z
" transform="scale(0.015625)"/>
       <path id="DejaVuSans-73" d="M 2834 3397 
L 2834 2853 
Q 2591 2978 2328 3040 
Q 2066 3103 1784 3103 
Q 1356 3103 1142 2972 
Q 928 2841 928 2578 
Q 928 2378 1081 2264 
Q 1234 2150 1697 2047 
L 1894 2003 
Q 2506 1872 2764 1633 
Q 3022 1394 3022 966 
Q 3022 478 2636 193 
Q 2250 -91 1575 -91 
Q 1294 -91 989 -36 
Q 684 19 347 128 
L 347 722 
Q 666 556 975 473 
Q 1284 391 1588 391 
Q 1994 391 2212 530 
Q 2431 669 2431 922 
Q 2431 1156 2273 1281 
Q 2116 1406 1581 1522 
L 1381 1569 
Q 847 1681 609 1914 
Q 372 2147 372 2553 
Q 372 3047 722 3315 
Q 1072 3584 1716 3584 
Q 2034 3584 2315 3537 
Q 2597 3491 2834 3397 
z
" transform="scale(0.015625)"/>
       <path id="DejaVuSans-76" d="M 191 3500 
L 800 3500 
L 1894 563 
L 2988 3500 
L 3597 3500 
L 2284 0 
L 1503 0 
L 191 3500 
z
" transform="scale(0.015625)"/>
      </defs>
      <use xlink:href="#DejaVuSans-4f"/>
      <use xlink:href="#DejaVuSans-62" x="78.710938"/>
      <use xlink:href="#DejaVuSans-73" x="142.1875"/>
      <use xlink:href="#DejaVuSans-65" x="194.287109"/>
      <use xlink:href="#DejaVuSans-72" x="255.810547"/>
      <use xlink:href="#DejaVuSans-76" x="296.923828"/>
      <use xlink:href="#DejaVuSans-65" x="356.103516"/>
      <use xlink:href="#DejaVuSans-64" x="417.626953"/>
     </g>
    </g>
    <g id="line2d_41">
     <path d="M 212.049375 57.614375 
L 222.049375 57.614375 
L 232.049375 57.614375 
" style="fill: none; stroke: #e69f00; stroke-width: 2; stroke-linecap: square"/>
    </g>
    <g id="text_24">
     <!-- Theoretical O(nm) -->
     <g style="fill: #333333" transform="translate(240.049375 61.114375) scale(0.1 -0.1)">
      <defs>
       <path id="DejaVuSans-68" d="M 3513 2113 
L 3513 0 
L 2938 0 
L 2938 2094 
Q 2938 2591 2744 2837 
Q 2550 3084 2163 3084 
Q 1697 3084 1428 2787 
Q 1159 2491 1159 1978 
L 1159 0 
L 581 0 
L 581 4863 
L 1159 4863 
L 1159 2956 
Q 1366 3272 1645 3428 
Q 1925 3584 2291 3584 
Q 2894 3584 3203 3211 
Q 3513 2838 3513 2113 
z
" transform="scale(0.015625)"/>
       <path id="DejaVuSans-28" d="M 1984 4856 
Q 1566 4138 1362 3434 
Q 1159 2731 1159 2009 
Q 1159 1288 1364 580 
Q 1569 -128 1984 -844 
L 1484 -844 
Q 1016 -109 783 600 
Q 550 1309 550 2009 
Q 550 2706 781 3412 
Q 1013 4119 1484 4856 
L 1984 4856 
z
" transform="scale(0.015625)"/>
       <path id="DejaVuSans-29" d="M 513 4856 
L 1013 4856 
Q 1481 4119 1714 3412 
Q 1947 2706 1947 2009 
Q 1947 1309 1714 600 
Q 1481 -109 1013 -844 
L 513 -844 
Q 928 -128 1133 580 
Q 1338 1288 1338 2009 
Q 1338 2731 1133 3434 
Q 928 4138 513 4856 
z
" transform="scale(0.015625)"/>
      </defs>
      <use xlink:href="#DejaVuSans-54"/>
      <use xlink:href="#DejaVuSans-68" x="61.083984"/>
      <use xlink:href="#DejaVuSans-65" x="124.462891"/>
      <use xlink:href="#DejaVuSans-6f" x="185.986328"/>
      <use xlink:href="#DejaVuSans-72" x="247.167969"/>
      <use xlink:href="#DejaVuSans-65" x="286.03125"/>
      <use xlink:href="#DejaVuSans-74" x="347.554688"/>
      <use xlink:href="#DejaVuSans-69" x="386.763672"/>
      <use xlink:href="#DejaVuSans-63" x="414.546875"/>
      <use xlink:href="#DejaVuSans-61" x="469.527344"/>
      <use xlink:href="#DejaVuSans-6c" x="530.806641"/>
      <use xlink:href="#DejaVuSans-20" x="558.589844"/>
      <use xlink:href="#DejaVuSans-4f" x="590.376953"/>
      <use xlink:href="#DejaVuSans-28" x="669.087891"/>
      <use xlink:href="#DejaVuSans-6e" x="708.101562"/>
      <use xlink:href="#DejaVuSans-6d" x="771.480469"/>
      <use xlink:href="#DejaVuSans-29" x="868.892578"/>
     </g>
    </g>
   </g>
  </g>
 </g>
 <defs>
  <clipPath id="p972a499aff">
   <rect x="7.2" y="29.837812" width="332.64" height="332.64"/>
  </clipPath>
 </defs>
</svg>
